<svg xmlns="http://www.w3.org/2000/svg" viewBox="0 0 120 120" width="120" height="120">
  <defs>
    <radialGradient id="pepeGreenGamer" cx="40%" cy="35%" r="65%">
      <stop offset="0%" stop-color="#8BC34A"/>
      <stop offset="60%" stop-color="#689F38"/>
      <stop offset="100%" stop-color="#33691E"/>
    </radialGradient>
  </defs>
  <!-- Gaming Headset -->
  <path d="M20 50 C20 15 100 15 100 50" fill="none" stroke="#212121" stroke-width="8" stroke-linecap="round"/>
  <!-- Headset Earcups -->
  <rect x="12" y="42" width="12" height="24" rx="4" fill="#00E5FF"/>
  <rect x="96" y="42" width="12" height="24" rx="4" fill="#00E5FF"/>
  <!-- Mic boom -->
  <path d="M18 60 Q25 78 40 75" fill="none" stroke="#212121" stroke-width="3"/>
  <circle cx="42" cy="75" r="4" fill="#E91E63"/>
  <!-- Pepe Head -->
  <path d="M25 60 C20 40 40 20 60 22 C80 20 100 40 95 60 C90 85 85 92 60 92 C35 92 30 85 25 60 Z" fill="url(#pepeGreenGamer)"/>
  <!-- Intense Eyes -->
  <ellipse cx="44" cy="35" rx="14" ry="12" fill="#FFFFFF" stroke="#33691E" stroke-width="2"/>
  <ellipse cx="76" cy="35" rx="14" ry="12" fill="#FFFFFF" stroke="#33691E" stroke-width="2"/>
  <ellipse cx="46" cy="36" rx="5" ry="6" fill="#795548"/>
  <ellipse cx="78" cy="36" rx="5" ry="6" fill="#795548"/>
  <!-- RGB lighting -->
  <text x="60" y="112" font-family="Segoe UI, Impact" font-size="12" font-weight="900" fill="#00E5FF" text-anchor="middle">GAMING TIME 🎮</text>
</svg>
